<svg id="Regular" xmlns="http://www.w3.org/2000/svg" viewBox="0 0 24 24"><defs><style>.cls-1{fill:none;stroke:currentColor;stroke-linecap:round;stroke-linejoin:round;stroke-width:1.5px;}</style></defs><title>outdoors-bird-house-1</title><polyline class="cls-1" points="15.75 2.75 15.75 7.5 9.75 7.5 9.75 2.75"/><polyline class="cls-1" points="8.25 3.75 12.75 0.75 17.25 3.75"/><line class="cls-1" x1="12.75" y1="5.25" x2="12.75" y2="23.25"/><path class="cls-1" d="M8.25,13.5a1.5,1.5,0,0,0,0-3,1.457,1.457,0,0,0-.8.267,2.242,2.242,0,0,0-4.315-.241c-.045,0-.084-.026-.13-.026a1.5,1.5,0,0,0,0,3Z"/><path class="cls-1" d="M21,18a1.5,1.5,0,0,0,0-3,1.457,1.457,0,0,0-.8.267A2.249,2.249,0,1,0,18,18Z"/><path class="cls-1" d="M5.25,13.5V15a3,3,0,0,0,3,3h4.5"/><path class="cls-1" d="M19.5,18v.75a3,3,0,0,1-3,3H12.75"/></svg>