<svg id="Regular" xmlns="http://www.w3.org/2000/svg" viewBox="0 0 24 24"><defs><style>.cls-1{fill:none;stroke:currentColor;stroke-linecap:round;stroke-linejoin:round;stroke-width:1.5px;}</style></defs><title>video-game-tetris</title><path class="cls-1" d="M.75,10.5a.75.75,0,0,1,.75-.75h3a.75.75,0,0,1,.75.75V18a.75.75,0,0,0,.75.75H9a.75.75,0,0,1,.75.75v3.75H1.5a.75.75,0,0,1-.75-.75Z"/><path class="cls-1" d="M22.5,5.25a.75.75,0,0,1,.75.75v7.5a.75.75,0,0,1-.75.75h-3a.75.75,0,0,1-.75-.75v-3A.75.75,0,0,0,18,9.75H15A.75.75,0,0,1,14.25,9V1.5A.75.75,0,0,1,15,.75h3a.75.75,0,0,1,.75.75v3a.75.75,0,0,0,.75.75Z"/><path class="cls-1" d="M13.5,14.25a.75.75,0,0,1,.75.75v3a.75.75,0,0,0,.75.75h3a.75.75,0,0,1,.75.75v3a.75.75,0,0,1-.75.75H9.75V19.5A.75.75,0,0,0,9,18.75H6A.75.75,0,0,1,5.25,18V14.25Z"/></svg>